PathFileType  4	(X/Y/Z) C:\Users\antoi\Documents\MyRepositories\mobilecap\ResultsAnalysis
DataRate	CameraRate	NumFrames	NumMarkers	Units	OrigDataRate	OrigDataStartFrame	OrigNumFrames
100.0	100.0	6	51	mm	100.0	75	149
Frame#	Time	r_knee			r_shank_antsup			r_ankle			r_calc			r_5meta			r_toe			L_knee			L_shank_antsup			L_ankle			L_calc			L_5meta			L_toe			r_sh2			r_sh3			r_sh4			L_sh2			L_sh3			r_thigh1			r_thigh2			r_thigh3			r_thigh4			r_thigh5			L_thigh1			L_thigh2			L_thigh3			L_thigh4			r.ASIS			r.PSIS			L.ASIS			L.PSIS			C7			R_Shoulder			L_Shoulder			R_Sternum			L_Sternum			R_humerus			R_elbow_med			R_elbow_lat			R_forearm			R_wrist_radius			R_wrist_ulna			L_humerus			L_elbow_med			L_elbow_lat			L_forearm			L_wrist_radius			L_wrist_ulna			R_HJC			L_HJC			R_HJC_reg			L_HJC_reg			
		X1	Y1	Z1	X2	Y2	Z2	X3	Y3	Z3	X4	Y4	Z4	X5	Y5	Z5	X6	Y6	Z6	X7	Y7	Z7	X8	Y8	Z8	X9	Y9	Z9	X10	Y10	Z10	X11	Y11	Z11	X12	Y12	Z12	X13	Y13	Z13	X14	Y14	Z14	X15	Y15	Z15	X16	Y16	Z16	X17	Y17	Z17	X18	Y18	Z18	X19	Y19	Z19	X20	Y20	Z20	X21	Y21	Z21	X22	Y22	Z22	X23	Y23	Z23	X24	Y24	Z24	X25	Y25	Z25	X26	Y26	Z26	X27	Y27	Z27	X28	Y28	Z28	X29	Y29	Z29	X30	Y30	Z30	X31	Y31	Z31	X32	Y32	Z32	X33	Y33	Z33	X34	Y34	Z34	X35	Y35	Z35	X36	Y36	Z36	X37	Y37	Z37	X38	Y38	Z38	X39	Y39	Z39	X40	Y40	Z40	X41	Y41	Z41	X42	Y42	Z42	X43	Y43	Z43	X44	Y44	Z44	X45	Y45	Z45	X46	Y46	Z46	X47	Y47	Z47	X48	Y48	Z48	X49	Y49	Z49	X50	Y50	Z50	X51	Y51	Z51	

75	0.74000000	613.31745	456.84696	-44.53671	604.52636	382.88191	-44.74758	331.71697	185.97773	-89.13584	283.81677	222.83795	-134.02886	345.84750	62.99327	-90.63278	395.98352	54.72196	-140.22325	844.53886	467.18285	-307.17375	888.44128	388.70734	-283.97568	841.94563	85.46026	-283.41797	782.04244	50.67893	-244.39206	948.66861	43.33251	-301.19986	993.63338	62.43179	-241.15179	514.19710	316.22798	-47.41580	559.92943	441.64327	-24.66232	460.82721	379.46150	-33.77641	815.70114	397.32565	-339.28947	817.86602	274.82549	-342.37234	709.16493	691.36707	-13.18501	691.92589	579.84068	-20.11919	624.34598	567.00312	-24.52465	598.22739	706.03752	-30.29817	585.41750	593.35354	-57.05822	816.49966	742.17167	-370.64413	855.35429	612.39625	-338.47013	712.83686	705.83301	-388.91318	745.45694	579.80611	-335.82621	790.44475	893.85294	-75.73654	588.62355	942.73327	-164.61394	808.39109	912.43774	-294.14046	596.58233	946.25343	-246.29314	690.21255	1368.19976	-250.87813	734.30485	1373.18784	-99.65870	743.65867	1303.26841	-374.72639	812.82242	1310.45425	-205.88620	813.95560	1300.31344	-245.23803	738.19320	1273.11097	-15.48150	620.73547	1081.63530	1.23207	657.69921	1093.17582	56.17274	717.38525	1018.58178	71.67504	750.66949	876.09091	78.99315	725.15832	876.94694	108.32178	758.15465	1195.42464	-430.33893	711.39409	975.95018	-403.62000	740.58946	994.28650	-460.48587	812.18400	913.47743	-467.94884	866.90725	797.71869	-451.96958	836.30661	785.82180	-477.71880	703.40466	812.84691	-96.33074	722.73768	831.30313	-302.12304	716.50261	837.67627	-115.51056	730.57040	843.90028	-259.84631	
76	0.75000000	636.30403	454.31815	-41.57268	626.65882	380.69002	-42.70130	347.81152	193.94843	-87.34362	302.37912	234.04626	-132.24107	354.64715	69.67074	-89.74196	404.71847	58.54194	-138.76632	849.75823	466.73427	-306.58260	893.00402	387.88548	-283.33880	842.49054	85.56410	-282.90580	782.24746	50.93749	-244.21485	948.95174	43.22682	-301.06869	993.87426	61.43232	-240.95257	534.46322	316.46382	-45.70729	584.15470	440.10026	-21.63500	482.99384	380.97607	-30.74645	820.51925	397.43504	-338.68264	821.24235	274.93723	-341.92096	725.20271	691.20068	-12.47313	711.53125	579.06067	-18.50211	644.40890	564.31221	-22.20078	613.76313	702.80055	-28.51038	603.91313	589.84655	-53.91263	826.47520	742.38805	-369.99328	863.02292	611.72427	-338.05312	722.21824	707.49311	-388.94452	752.42768	581.11022	-335.23458	801.39323	895.13764	-76.23607	599.33545	943.76136	-163.32417	819.11358	913.79156	-294.29853	607.02589	947.28090	-245.14947	702.24487	1367.95548	-255.67030	746.91510	1376.07982	-104.88873	755.13914	1300.66106	-378.33396	824.64373	1311.01369	-210.28554	825.72056	1300.20369	-249.36165	750.56486	1277.33359	-19.06498	629.32842	1088.84481	1.85265	668.42705	1099.41242	55.65539	726.38238	1023.20862	69.51241	755.66155	879.50342	76.24189	731.32641	881.47744	106.52532	769.67867	1192.36202	-432.68347	723.50285	973.14180	-403.61591	752.47638	990.99989	-460.81754	824.77242	910.51287	-467.60892	880.50645	795.49260	-450.37684	849.86146	783.03568	-475.83868	714.74695	813.93072	-96.02917	733.05893	832.62020	-301.90182	727.64986	839.05169	-115.65978	741.19679	845.25789	-259.81104	
77	0.76000000	659.57777	452.40647	-38.87483	649.23331	379.01633	-40.97523	364.92681	201.85230	-85.77770	321.55951	244.33892	-130.69866	366.07018	76.74686	-88.78838	415.98932	63.26691	-137.31589	854.57547	466.26481	-305.73119	897.28551	387.08615	-282.35565	843.09893	85.71151	-282.27624	782.45697	51.25204	-243.97356	949.29330	43.21213	-300.86299	994.13781	60.52424	-240.71605	555.20288	317.05493	-44.36384	608.61431	439.00007	-18.97404	505.66872	382.75071	-28.01454	825.20677	397.52432	-337.84176	824.60428	275.05013	-341.25626	741.31147	691.30860	-11.70511	731.29790	578.67506	-16.95896	664.64797	562.08062	-20.05409	629.40309	699.84011	-26.65888	622.77104	586.86035	-50.92006	835.96679	742.34780	-369.19385	870.05594	610.83395	-337.35731	730.94236	708.97343	-388.35971	758.56740	582.66723	-334.32649	811.98082	896.47249	-76.45583	609.67701	944.80741	-162.50800	829.70191	914.66999	-294.32130	617.29983	948.20608	-244.45984	714.16971	1367.71351	-260.34819	759.23190	1378.72580	-109.94822	766.70864	1297.97323	-381.77365	836.32947	1311.32923	-214.38593	837.31520	1299.91761	-253.19420	762.73589	1281.29549	-22.52037	637.80868	1095.92766	3.24484	679.31501	1105.48645	55.52721	735.61404	1027.80384	67.39218	761.26545	883.10192	73.45220	738.26700	886.06171	104.81812	781.24595	1189.19702	-434.84345	735.46701	970.24959	-403.69222	764.31070	987.65533	-461.13654	837.28656	907.48728	-467.20511	893.96861	793.21830	-448.75270	863.40133	780.23261	-473.88195	725.52251	815.12557	-95.57624	743.25177	833.52633	-301.52337	738.32343	840.30053	-115.67684	751.71464	846.27873	-259.69541	
78	0.77000000	682.93985	451.26126	-36.49093	672.04224	377.99779	-39.50715	382.98566	209.46146	-84.43643	341.01306	253.43518	-129.34485	380.38779	83.91518	-87.72873	430.07275	68.77744	-135.91620	859.13045	465.86626	-304.72204	901.37551	386.34248	-281.13206	843.72282	85.90418	-281.60085	782.66439	51.61695	-243.71204	949.64769	43.26576	-300.62288	994.41422	59.73220	-240.46809	576.23595	318.14050	-43.32358	633.03685	438.51005	-16.69134	528.59791	384.90571	-25.64326	829.80708	397.62907	-336.87711	827.94794	275.19487	-340.47689	757.39011	691.81875	-10.90569	751.08510	578.81697	-15.49781	684.89117	560.44675	-18.12803	645.09805	697.26914	-24.85414	641.91493	584.45084	-48.24188	844.92964	742.18152	-368.32088	876.57034	609.94038	-336.44397	739.05577	710.34396	-387.29566	764.12917	584.44017	-333.25991	822.24807	897.88645	-76.37866	619.67113	945.88094	-162.12806	840.09851	915.18744	-294.19090	627.39757	949.10970	-244.16848	725.97605	1367.50274	-264.87050	771.26107	1381.13552	-114.78774	778.31430	1295.27850	-385.02904	847.89796	1311.44143	-218.16620	848.69129	1299.47268	-256.71782	774.65745	1284.98996	-25.81102	646.21552	1102.79568	5.18842	690.19687	1111.35719	55.67527	744.95575	1032.35424	65.34779	767.43638	886.91725	70.77129	745.86478	890.67659	103.26917	792.80337	1186.00507	-436.80730	747.27770	967.32546	-403.82854	776.11476	984.30005	-461.42058	849.71007	904.46402	-466.72614	907.24854	790.92882	-447.09043	876.87034	777.44264	-471.85582	735.76967	816.45174	-94.98077	753.31357	834.12507	-300.99837	748.57589	841.39653	-115.56964	762.12640	847.06464	-259.50837	
79	0.78000000	706.21770	450.94287	-34.43948	694.88996	377.70835	-38.22059	401.92527	216.57135	-83.31417	360.54073	261.16929	-128.15684	397.60622	90.88066	-86.51349	447.00393	74.82538	-134.56039	863.51464	465.59533	-303.68092	905.32835	385.68119	-279.81632	844.31021	86.14267	-280.95299	782.87024	52.02019	-243.46855	949.96882	43.36201	-300.39158	994.68805	59.07692	-240.23714	597.45141	319.78319	-42.48695	657.20061	438.71158	-14.77070	551.55100	387.48009	-23.67525	834.30145	397.77856	-335.90076	831.21381	275.39807	-339.68327	773.33612	692.82137	-10.09383	770.74941	579.57465	-14.11899	704.99179	559.48094	-16.43447	660.78319	695.15616	-23.18694	661.21494	582.58739	-45.99196	853.30151	741.98113	-367.48321	882.66361	609.18995	-335.43528	746.60729	711.65512	-385.93140	769.34601	586.30135	-332.11585	832.24039	899.41508	-76.01800	629.35957	946.98533	-162.08346	850.25718	915.48862	-293.89791	637.31379	950.06231	-244.16515	737.65155	1367.34032	-269.20397	783.03069	1383.33369	-119.37893	789.87603	1292.65702	-388.09234	859.35878	1311.41136	-221.63237	859.83627	1298.91378	-259.94172	786.29151	1288.43107	-28.91750	654.61384	1109.35524	7.37934	700.91493	1117.00621	55.97110	754.28518	1036.85833	63.45640	774.07542	890.94315	68.38232	753.92459	895.30745	101.96610	804.28404	1182.87841	-438.58038	758.92768	964.43626	-403.98853	787.88920	981.00608	-461.64492	862.02015	901.52410	-466.15828	920.32440	788.68289	-445.36904	890.19993	774.71321	-469.76389	745.56773	817.92339	-94.24982	763.23747	834.54300	-300.33444	758.48663	842.34224	-115.35013	772.42808	847.73753	-259.25311	
80	0.79000000	729.28693	451.42234	-32.71035	717.62288	378.15114	-37.04692	421.68404	223.01511	-82.40268	380.11686	267.48835	-127.16623	417.44121	97.39220	-85.09295	466.55962	81.06662	-133.17270	867.77612	465.48035	-302.72853	909.16398	385.12643	-278.57234	844.81803	86.43185	-280.39327	783.07868	52.44992	-243.26760	950.22007	43.47808	-300.20666	994.94086	58.56722	-240.04920	618.80781	321.94578	-41.74982	680.95949	439.58974	-13.17444	574.35594	390.41195	-22.11818	838.62468	398.00333	-335.00420	834.30607	275.69016	-338.95914	789.07601	694.35591	-9.27951	790.18019	580.98309	-12.82417	724.86480	559.18218	-14.95731	676.40260	693.52225	-21.70271	680.52845	581.16966	-44.21012	861.03526	741.80332	-366.78650	888.40743	608.65181	-334.47699	753.64607	712.93779	-384.43892	774.37813	588.09750	-330.91452	842.00592	901.09297	-75.41674	638.79989	948.12493	-162.22738	860.14966	915.71785	-293.44913	647.05222	951.11862	-244.30418	749.18130	1367.23650	-273.32791	794.58181	1385.35567	-123.71524	801.30241	1290.18653	-390.96439	870.70808	1311.30940	-224.81352	870.76894	1298.30460	-262.89713	797.61421	1291.65132	-31.83645	663.07311	1115.52439	9.48229	711.34673	1122.42995	56.28266	763.50751	1041.32316	61.83030	781.06404	895.13691	66.48344	762.21052	899.94453	101.01167	815.62163	1179.91335	-440.18260	770.42451	961.65455	-404.12257	799.61502	977.86229	-461.78420	874.19175	898.75433	-465.48521	933.19162	786.55471	-443.56152	903.32125	772.10809	-467.61055	755.02421	819.54886	-93.38696	773.01091	834.90600	-299.53597	768.14567	843.16797	-115.03636	782.61273	848.41594	-258.93333	
